<svg version="1.1" id="Layer_1" xmlns="http://www.w3.org/2000/svg" xmlns:xlink="http://www.w3.org/1999/xlink" x="0px" y="0px"
	 width="100%" viewBox="0 0 223 223" enable-background="new 0 0 223 223" xml:space="preserve">
<path fill="#FBFBFB" opacity="1.000000" stroke="none" 
	d="
M129.000000,224.000000 
	C87.166672,224.000000 45.833221,223.959900 4.500258,224.083725 
	C1.516939,224.092667 0.913396,223.482315 0.917765,220.499893 
	C1.023257,148.500046 1.023255,76.499985 0.917773,4.500141 
	C0.913404,1.517818 1.517659,0.913393 4.500100,0.917763 
	C76.499947,1.023260 148.500000,1.023256 220.499847,0.917775 
	C223.482147,0.913406 224.086624,1.517614 224.082260,4.500086 
	C223.976761,76.499931 223.976746,148.499985 224.082214,220.499832 
	C224.086578,223.482086 223.484131,224.098572 220.499664,224.084900 
	C190.166946,223.945923 159.833344,224.000000 129.000000,224.000000 
z"/>
<path fill="#EA4436" opacity="1.000000" stroke="none" 
	d="
M94.991974,111.439095 
	C85.329422,110.083191 79.824661,103.291031 74.378220,96.939453 
	C61.640903,82.085312 49.472149,66.744614 36.795647,51.836918 
	C31.129082,45.172977 27.951029,34.093273 33.825539,25.742733 
	C39.398891,17.820286 45.986626,14.893147 57.065563,16.234921 
	C68.951065,17.674381 75.174088,25.995169 81.966240,34.090420 
	C92.468346,46.607376 101.987282,59.939919 113.572449,71.948959 
	C118.298340,75.904358 121.724327,80.615273 125.198021,85.218399 
	C130.348526,92.043541 135.998001,97.406792 145.471573,95.774567 
	C146.593750,95.581215 147.785080,95.912933 148.985687,96.933151 
	C145.764343,103.184151 140.873810,107.433601 134.188370,110.110481 
	C133.505386,110.435982 133.170517,110.675003 132.533951,111.023888 
	C131.855438,111.322876 131.457901,111.479401 130.742264,111.738754 
	C130.206879,111.905533 129.986481,111.961594 129.424332,112.074692 
	C128.135391,112.237518 127.182518,112.246254 125.856819,112.322784 
	C124.449242,112.383728 123.416039,112.369247 121.977112,112.406311 
	C120.178940,112.381287 118.787491,112.378326 116.963638,112.407242 
	C111.221184,112.405228 105.910759,112.350380 100.155991,112.527527 
	C98.235924,112.351540 96.722435,112.391792 94.991974,111.439095 
z"/>
<path fill="#4386F3" opacity="1.000000" stroke="none" 
	d="
M36.358879,180.392349 
	C36.427197,179.930984 36.568165,179.692520 36.846893,179.061996 
	C36.984653,178.669952 37.445965,178.590439 37.386089,178.364166 
	C47.896397,162.309128 61.146671,148.402344 70.580391,131.750320 
	C71.543427,130.050430 73.063522,128.666107 74.657005,127.050644 
	C74.988892,126.965935 75.129196,127.212799 75.189445,127.324547 
	C75.249695,127.436295 75.165329,127.177231 75.062347,127.088058 
	C75.391190,125.447052 77.008316,125.242516 78.257980,124.183678 
	C84.003098,122.838440 89.360962,119.354660 95.462624,123.296402 
	C96.916672,124.068153 97.890457,124.852005 99.103203,125.913658 
	C100.511734,127.287071 101.560303,128.513306 103.019585,129.807739 
	C103.628258,130.312241 103.981880,130.594070 104.615234,131.076508 
	C105.064133,131.435013 105.236679,131.588699 105.632126,132.009659 
	C108.203247,136.329102 111.537506,139.609863 114.449219,143.219559 
	C115.907951,145.027985 117.639305,146.649017 117.518684,149.563446 
	C117.066063,150.528580 116.535423,150.995102 115.747406,151.697876 
	C110.934845,157.414642 107.191719,163.488846 102.871803,169.148163 
	C96.951904,176.903519 91.339279,184.892944 85.304276,192.985840 
	C84.196114,194.228271 83.554123,195.372894 82.800850,196.838776 
	C82.151451,197.871216 81.534813,198.507111 80.715790,199.407867 
	C79.218918,200.906235 77.928520,202.140213 76.496155,203.718018 
	C72.763115,207.793716 68.021416,209.228531 63.020920,210.921204 
	C62.436771,211.237854 62.128170,211.278564 61.579971,211.208130 
	C59.361973,209.845169 57.119564,210.447006 55.038197,210.548767 
	C50.152836,210.787567 45.844341,209.499680 41.669678,206.349350 
	C39.915062,205.172699 39.098179,203.653732 37.807541,202.092194 
	C36.906845,200.944214 36.329975,199.996368 35.711807,198.700836 
	C35.472961,197.780273 35.539684,197.140686 35.183983,196.311798 
	C34.893555,195.308380 34.834831,194.512024 34.677391,193.328827 
	C34.005566,190.949249 33.778351,188.944855 34.471493,186.486206 
	C34.669819,185.269562 34.772293,184.479385 34.921745,183.291718 
	C35.126301,182.794846 35.283875,182.695511 35.495331,182.321991 
	C35.637432,181.829391 35.725647,181.610947 35.892433,181.047974 
	C35.971012,180.703430 36.431530,180.615250 36.358879,180.392349 
z"/>
<path fill="#FBBC06" opacity="1.000000" stroke="none" 
	d="
M149.487732,97.091965 
	C148.858505,97.199463 148.508255,97.037392 148.205490,97.101082 
	C135.465393,99.781281 128.007980,92.264633 121.638809,83.066536 
	C119.195732,79.538345 115.530052,76.943985 113.922028,72.436874 
	C125.722466,57.465260 135.848587,41.463867 148.686264,27.671480 
	C157.521973,18.178679 175.585922,20.487291 182.595154,31.336645 
	C186.265076,37.017200 185.667679,49.053585 181.332870,54.942631 
	C172.424942,67.044449 163.484161,79.122169 154.519104,91.181709 
	C153.040833,93.170242 151.370438,95.015968 149.487732,97.091965 
z"/>
<path fill="#45AE33" opacity="1.000000" stroke="none" 
	d="
M98.460426,111.335686 
	C104.533875,111.150734 110.301613,111.109734 116.533218,111.134033 
	C117.063904,111.438828 117.130722,111.678314 116.952225,112.199829 
	C116.059174,112.876999 115.342430,113.058647 114.237885,113.201385 
	C111.193657,113.704079 106.912514,111.873375 106.146713,114.613869 
	C105.231003,117.890831 109.791481,118.674492 112.168381,120.004074 
	C123.060486,126.096901 134.093201,131.951675 142.598679,141.392288 
	C149.829102,149.417648 156.372910,158.022705 163.234680,166.357056 
	C169.395889,173.840485 176.868759,178.337448 186.621307,178.834045 
	C187.458939,178.876678 188.262634,179.075928 189.225372,179.780075 
	C189.369125,181.176605 189.282730,182.300308 189.006836,183.715729 
	C181.979019,186.412216 175.394669,185.956863 169.474808,181.644547 
	C160.797546,175.323578 153.889313,167.198395 147.110794,158.969009 
	C142.881012,153.833923 138.717239,148.638947 134.297913,143.667023 
	C126.418167,134.802002 116.131752,129.240524 106.031685,123.463326 
	C102.858246,121.648125 99.451820,120.247566 96.260475,118.455086 
	C94.391533,117.405357 92.373161,116.346100 92.781097,113.353577 
	C93.002411,113.051521 93.228577,112.756386 93.408722,112.710442 
	C95.080734,112.153625 96.606873,111.774803 98.460426,111.335686 
z"/>
<path fill="#76CA5F" opacity="1.000000" stroke="none" 
	d="
M134.850098,111.745651 
	C141.510727,112.846107 145.752075,117.164482 149.578430,121.722076 
	C160.038208,134.180740 170.246231,146.850739 180.646545,159.749100 
	C177.922272,162.817795 175.003372,162.215530 172.205994,160.142380 
	C169.525772,158.156067 167.110992,155.802841 165.116089,153.151611 
	C156.329437,141.473999 145.863312,131.599686 133.773804,123.419113 
	C133.085556,122.953400 132.415985,122.455414 131.778931,121.921188 
	C129.889465,120.336761 127.394661,118.957458 128.339417,115.907791 
	C129.233948,113.020241 131.499969,111.778961 134.850098,111.745651 
z"/>
<path fill="#62C04D" opacity="1.000000" stroke="none" 
	d="
M113.739243,112.272568 
	C114.759819,112.020523 115.506561,112.014153 116.626678,112.008209 
	C118.482765,111.967445 119.996964,112.180550 121.684746,111.326340 
	C123.063004,111.145058 124.152512,111.101425 125.646774,111.123390 
	C126.907707,111.685608 127.888802,111.416199 129.061890,111.858505 
	C129.956345,114.184135 128.525482,114.733658 126.978874,115.071228 
	C122.610725,116.024666 124.044250,117.803665 126.444412,119.411736 
	C131.432465,122.753647 136.139465,126.477142 141.039474,129.931992 
	C149.915054,136.189896 155.775711,145.239746 162.907623,153.116745 
	C167.026108,157.665497 170.340103,162.956818 175.518738,166.546646 
	C178.718109,168.764435 181.600739,169.044067 184.740509,165.930191 
	C188.197189,168.580307 189.259598,172.297089 189.626648,176.641571 
	C177.991867,177.198273 168.761215,173.234146 162.020737,163.324677 
	C157.550217,156.752380 152.005264,150.913254 147.033615,144.665985 
	C139.662003,135.402985 129.809586,129.108948 119.675415,123.283012 
	C117.511147,122.038811 115.304146,120.859024 113.239403,119.462975 
	C109.430031,116.887329 109.504616,115.557487 113.739243,112.272568 
z"/>
<path fill="#3FA52E" opacity="1.000000" stroke="none" 
	d="
M92.645027,113.049217 
	C93.192017,115.652603 95.180016,116.641159 97.153770,117.566162 
	C105.594368,121.521843 113.557510,126.298019 121.486107,131.186996 
	C130.168854,136.541016 136.548630,144.128494 142.908310,151.813126 
	C151.158066,161.781616 159.211151,171.875198 169.392365,180.109894 
	C175.149231,184.766129 181.524460,183.801361 188.366638,184.008392 
	C188.501404,185.233673 188.185471,186.459900 187.629898,187.906555 
	C178.369370,191.293320 171.299408,187.332062 164.631805,181.898651 
	C162.337799,180.029282 160.783524,177.252884 157.397186,176.148666 
	C154.910995,174.380905 153.202698,172.318253 151.161987,170.113586 
	C148.387985,163.678207 143.184204,159.536530 139.120926,154.552948 
	C136.422791,151.243713 134.071014,147.490372 130.154266,144.780945 
	C129.752426,144.374832 129.607986,144.198502 129.290024,143.731522 
	C128.377853,141.554092 127.222618,140.037643 125.032814,139.027359 
	C123.945557,138.433426 123.342148,137.779144 122.532394,136.857834 
	C121.426338,135.626343 120.569695,134.607651 118.866226,134.209167 
	C118.111603,134.002182 117.692314,133.848679 117.000046,133.486526 
	C114.719833,130.863708 111.925285,129.593506 108.895935,128.078400 
	C108.385979,127.836174 108.185722,127.728546 107.702515,127.427322 
	C104.224304,124.404236 100.317940,123.114388 95.950500,121.988922 
	C92.444153,119.668053 89.351212,118.712334 86.037949,121.801918 
	C84.727951,123.023483 83.049454,122.886917 81.588409,121.106537 
	C84.283134,117.097107 88.207001,114.962143 92.645027,113.049217 
z"/>
<path fill="#54B941" opacity="1.000000" stroke="none" 
	d="
M113.567459,112.015907 
	C110.888962,115.444504 111.363464,117.287102 115.778641,119.660469 
	C126.887344,125.631958 137.871277,132.038895 146.239563,141.803238 
	C152.925125,149.604126 159.460495,157.547211 165.752655,165.667313 
	C170.452347,171.732315 176.119049,175.388474 183.964523,174.973953 
	C185.919205,174.870697 187.564377,175.258514 189.186081,176.897430 
	C189.599106,177.779083 189.676773,178.551697 189.604980,179.688599 
	C175.091125,181.004929 166.212173,172.546219 158.048492,162.289566 
	C149.916840,152.073151 142.583008,141.034119 131.731659,133.300217 
	C124.155312,127.900475 115.942871,123.507919 107.859100,118.921593 
	C105.968803,117.849136 102.788376,117.333466 103.626534,114.335960 
	C104.385735,111.620865 107.277313,111.964165 109.623932,111.999245 
	C110.789665,112.016670 111.955849,112.003983 113.567459,112.015907 
z"/>
<path fill="#EFF0EF" opacity="1.000000" stroke="none" 
	d="
M146.041763,199.573380 
	C144.641174,201.676910 143.064972,200.809021 141.486725,200.321045 
	C136.224655,198.694061 130.693680,198.937195 125.319649,198.038315 
	C116.624329,196.583939 109.323807,200.758911 101.558487,203.708405 
	C94.279572,206.473175 87.922882,212.065155 79.239670,211.289978 
	C79.608475,207.829468 82.561745,207.832657 85.118195,206.726685 
	C91.871376,204.338150 97.371262,200.511261 103.495644,196.775650 
	C101.060974,194.826996 99.135109,195.868393 97.273857,195.938660 
	C94.276024,196.051865 91.013954,197.447189 88.611900,193.963882 
	C89.825157,191.475540 91.991264,191.701920 93.902924,191.323593 
	C109.079124,188.320129 124.404984,189.501465 140.086349,189.769043 
	C145.057983,191.974548 140.553162,193.492432 140.011398,195.224365 
	C141.672440,197.253235 144.709930,196.988892 146.041763,199.573380 
z"/>
<path fill="#6AC554" opacity="1.000000" stroke="none" 
	d="
M184.964478,165.475616 
	C182.993561,170.159943 180.555313,170.896042 176.474731,168.737183 
	C170.497711,165.575027 166.754608,160.052689 162.874039,155.029831 
	C152.524841,141.634232 140.860977,129.848969 126.428696,120.887550 
	C124.579636,119.739403 121.615807,118.945992 122.315224,115.954483 
	C122.994469,113.049187 125.946747,114.442474 127.843010,113.786896 
	C128.247849,113.646927 128.516190,113.112167 128.928925,112.390503 
	C129.132507,111.826881 129.254578,111.632042 129.688828,111.290634 
	C130.001007,111.144066 130.395233,110.974167 130.608948,110.954254 
	C131.019470,110.832298 131.216278,110.730247 131.742004,110.577209 
	C132.515762,110.516502 132.960068,110.528122 133.636490,110.800690 
	C134.194443,111.125381 134.519730,111.210167 135.028015,111.472923 
	C126.994888,116.485252 126.919662,116.768967 134.893539,122.491653 
	C146.688385,130.956558 157.421967,140.467346 165.967453,152.324249 
	C167.601242,154.591171 169.947983,156.334320 171.883987,158.395935 
	C174.230423,160.894638 176.961243,161.183273 180.376526,160.057877 
	C182.115417,161.762207 183.491699,163.463242 184.964478,165.475616 
z"/>
<path fill="#CFD5CD" opacity="1.000000" stroke="none" 
	d="
M146.333191,199.929581 
	C144.235413,199.057480 142.467865,198.208984 140.707809,197.345245 
	C139.464203,196.734985 137.353424,196.971390 137.482971,194.911545 
	C137.609238,192.903595 139.628571,193.290161 140.946014,192.804169 
	C141.349670,192.655258 141.615433,192.132477 142.030151,191.433868 
	C143.425751,189.402924 145.660660,189.889465 147.602509,188.775345 
	C150.357086,188.646790 151.424484,190.593536 152.448898,192.176208 
	C155.391907,196.722977 159.502823,198.505264 165.099701,198.031189 
	C169.406784,197.398178 173.579468,198.192657 177.565994,195.884979 
	C178.918213,194.898117 180.059387,194.200073 181.220001,192.992935 
	C182.089706,192.143921 182.739441,191.542053 183.571564,190.634033 
	C184.393829,189.940521 185.034180,189.669083 186.102234,189.873688 
	C191.201065,194.862457 191.045822,197.132385 185.366516,199.922028 
	C184.543930,199.948807 184.105682,199.966049 183.339203,200.005341 
	C182.606201,200.450775 182.148102,200.787033 181.273468,200.924606 
	C170.947540,202.852982 160.910019,202.925018 150.446869,200.921448 
	C149.422394,200.938126 148.878021,200.789444 148.201126,200.207092 
	C147.556000,199.980820 147.111313,199.963760 146.333191,199.929581 
z"/>
<path fill="#EFF0EF" opacity="1.000000" stroke="none" 
	d="
M34.899376,196.435852 
	C35.258949,196.564270 35.565620,197.023804 35.915737,197.776733 
	C36.946247,199.467117 36.560555,200.765976 35.830666,202.159119 
	C32.504353,208.508057 33.185909,209.661667 40.871315,210.255951 
	C41.721088,210.231018 42.197178,210.326309 42.959793,210.716995 
	C43.492615,211.407806 43.553459,211.894440 43.221069,212.708557 
	C36.869114,215.480743 31.076031,212.926193 25.416391,211.324295 
	C22.933390,210.621506 23.793060,207.758347 25.520878,206.012619 
	C28.600000,202.901611 31.734900,199.845810 34.899376,196.435852 
z"/>
<path fill="#DADDDA" opacity="1.000000" stroke="none" 
	d="
M86.277382,207.701080 
	C83.349556,207.633316 81.736488,209.969971 79.213135,210.750092 
	C78.560753,211.027969 78.124298,211.033875 77.360657,211.053314 
	C76.604507,211.455688 76.148338,211.799255 75.286263,211.970978 
	C74.444382,211.853165 73.889061,211.708542 73.154266,211.333618 
	C72.389435,209.450745 73.824173,209.208893 74.734512,208.731750 
	C80.784935,205.560471 80.793739,205.577271 79.784111,199.119843 
	C80.420593,198.240143 80.888283,197.653214 81.612045,196.942719 
	C83.836128,196.442642 85.813904,196.578247 87.788948,196.724915 
	C89.883339,196.880432 91.707657,197.505539 92.416336,199.755569 
	C93.149826,202.084335 91.657356,203.432816 90.160370,204.804108 
	C89.057281,205.814560 87.573593,206.280640 86.277382,207.701080 
z"/>
<path fill="#3CA02D" opacity="1.000000" stroke="none" 
	d="
M186.448486,190.463318 
	C185.686996,190.689987 185.189621,190.911285 184.428482,191.203461 
	C171.667587,192.037918 163.337952,185.453278 156.890350,175.371201 
	C159.518356,174.628250 160.976395,176.304016 162.386688,177.910767 
	C168.773026,185.186752 176.688522,188.777145 186.912918,188.092529 
	C187.229767,188.520798 187.069275,188.914597 186.854965,189.622772 
	C186.771622,190.110733 186.742111,190.284348 186.448486,190.463318 
z"/>
<path fill="#419F4A" opacity="1.000000" stroke="none" 
	d="
M81.194183,120.934326 
	C83.148102,121.738152 84.693909,122.149132 86.220573,120.329140 
	C89.357376,116.589661 92.418869,117.623970 95.661865,120.847298 
	C96.809731,121.970909 97.020584,123.048286 96.294052,124.578896 
	C90.737251,119.643707 84.960510,124.855667 78.993713,124.078751 
	C79.321533,123.059891 80.125526,122.077675 81.194183,120.934326 
z"/>
<path fill="#BDC4BA" opacity="1.000000" stroke="none" 
	d="
M79.673126,198.974365 
	C83.303825,206.875458 83.303398,206.874252 74.285919,210.074020 
	C73.978935,210.182968 73.698860,210.367706 73.190514,210.810226 
	C72.497467,211.060837 72.020149,211.018341 71.200447,210.865356 
	C70.102921,209.110229 71.207497,208.180801 72.345505,207.541153 
	C74.061378,206.576721 75.054520,205.169800 75.819580,203.061615 
	C77.125000,201.535339 78.259186,200.328522 79.673126,198.974365 
z"/>
<path fill="#EFF0EF" opacity="1.000000" stroke="none" 
	d="
M186.337326,190.741516 
	C186.184387,190.468689 186.391251,190.085098 186.596191,190.011108 
	C190.806168,190.183350 194.104843,192.595825 193.612427,196.179993 
	C193.132202,199.675598 189.134293,200.825912 185.200226,200.212341 
	C189.263168,197.598129 189.557724,194.590530 186.337326,190.741516 
z"/>
<path fill="#ADB7A9" opacity="1.000000" stroke="none" 
	d="
M43.193851,211.362335 
	C42.490559,211.142242 42.063557,211.095261 41.314243,211.044357 
	C34.563656,209.666626 33.765762,207.588379 37.659859,201.283539 
	C39.539738,201.569397 39.818283,203.167282 40.827148,204.550323 
	C42.492691,208.705292 47.198170,208.023041 49.304356,211.110626 
	C48.286026,211.640350 47.467258,211.838562 46.322792,212.038605 
	C45.132557,211.983322 44.251492,212.008850 43.193851,211.362335 
z"/>
<path fill="#8E9D87" opacity="1.000000" stroke="none" 
	d="
M75.688141,202.928436 
	C77.152512,207.093994 73.196564,207.995468 70.943298,210.428619 
	C70.858070,210.754852 70.906456,210.989227 70.991035,211.073868 
	C70.368149,211.658569 69.597473,211.926514 68.328224,211.653015 
	C66.502365,210.324249 64.932281,211.545837 63.092010,211.191315 
	C64.401031,208.240173 67.807838,208.413498 70.269577,206.902710 
	C72.103699,205.777100 73.876137,204.644958 75.688141,202.928436 
z"/>
<path fill="#8E9D87" opacity="1.000000" stroke="none" 
	d="
M49.558998,211.436005 
	C47.981339,209.414810 45.705326,209.987732 44.006786,209.299042 
	C42.178131,208.557571 40.872322,207.781250 40.955956,205.229370 
	C46.891163,209.049103 53.603642,210.509247 61.043987,210.830597 
	C57.570580,211.252869 53.791889,211.341354 49.558998,211.436005 
z"/>
<path fill="#EFF0EF" opacity="1.000000" stroke="none" 
	d="
M52.471622,214.976685 
	C50.552307,214.675278 49.772007,213.709198 51.633717,213.204071 
	C53.741276,212.632248 56.139847,212.522476 58.673119,213.647171 
	C56.980793,215.928284 54.706188,214.601807 52.471622,214.976685 
z"/>
<path fill="#EFF0EF" opacity="1.000000" stroke="none" 
	d="
M34.311680,186.267059 
	C34.630524,188.071671 34.693703,190.083603 34.667778,192.518768 
	C32.392551,190.948715 32.456528,188.773605 34.311680,186.267059 
z"/>
<path fill="#EFF0EF" opacity="1.000000" stroke="none" 
	d="
M67.962425,211.827469 
	C68.718605,211.322983 69.500168,211.140091 70.678680,211.057861 
	C70.922768,212.184479 71.200989,213.489914 69.743835,213.778000 
	C68.537796,214.016464 68.149506,213.152603 67.962425,211.827469 
z"/>
<path fill="#76CA5F" opacity="1.000000" stroke="none" 
	d="
M98.420631,111.132324 
	C97.520325,112.386948 96.062744,113.015450 93.949898,112.760559 
	C93.822250,112.332695 94.055641,112.000900 94.466644,111.412857 
	C95.787888,111.128708 96.931503,111.100807 98.420631,111.132324 
z"/>
<path fill="#DADDDA" opacity="1.000000" stroke="none" 
	d="
M42.936485,211.492279 
	C43.808338,211.289383 44.699112,211.389572 45.793491,211.765106 
	C45.465431,212.948593 44.576286,212.993652 43.335732,213.008896 
	C42.984463,212.608124 42.969933,212.201752 42.936485,211.492279 
z"/>
<path fill="#EFF0EF" opacity="1.000000" stroke="none" 
	d="
M148.030182,200.294128 
	C148.556046,200.145599 149.111404,200.293289 149.844055,200.673645 
	C149.163284,202.068604 148.520828,201.892258 148.030182,200.294128 
z"/>
<path fill="#EFF0EF" opacity="1.000000" stroke="none" 
	d="
M181.148407,201.172943 
	C181.462540,200.635483 181.940094,200.335800 182.714325,200.031754 
	C182.816467,200.945282 182.817261,202.103058 181.148407,201.172943 
z"/>
<path fill="#EFF0EF" opacity="1.000000" stroke="none" 
	d="
M75.168594,212.223465 
	C75.476776,211.686630 75.953857,211.375458 76.732201,211.065552 
	C76.824509,211.964813 76.795128,213.083145 75.168594,212.223465 
z"/>
<path fill="#76CA5F" opacity="1.000000" stroke="none" 
	d="
M133.873108,110.821449 
	C133.456787,111.030655 133.044418,111.020714 132.322540,111.000305 
	C131.893585,110.859566 131.774139,110.729286 131.828461,110.398773 
	C132.407883,110.155663 132.813568,110.112785 133.519226,110.118843 
	C133.819199,110.167770 133.877075,110.602303 133.873108,110.821449 
z"/>
<path fill="#EFF0EF" opacity="1.000000" stroke="none" 
	d="
M37.246170,178.209915 
	C37.326214,178.137894 37.452881,178.401581 37.452881,178.401581 
	C37.452881,178.401581 37.275909,178.634293 37.130280,178.652130 
	C36.984653,178.669952 37.166130,178.281937 37.246170,178.209915 
z"/>
<path fill="#EFF0EF" opacity="1.000000" stroke="none" 
	d="
M36.211014,180.242981 
	C36.286228,180.169449 36.435398,180.420486 36.435398,180.420486 
	C36.435398,180.420486 36.261421,180.655045 36.116219,180.679230 
	C35.971012,180.703430 36.135796,180.316498 36.211014,180.242981 
z"/>
<path fill="#EFF0EF" opacity="1.000000" stroke="none" 
	d="
M35.413170,182.158783 
	C35.704830,182.345535 35.640415,182.583786 35.162346,182.828384 
	C35.015511,182.658371 35.118309,182.450226 35.413170,182.158783 
z"/>
<path fill="#54B941" opacity="1.000000" stroke="none" 
	d="
M121.561607,111.124359 
	C120.855278,112.989983 119.347168,113.461983 117.212601,112.265686 
	C117.000069,112.008644 116.997116,111.603905 116.997101,111.401627 
	C118.381302,111.152908 119.765503,111.106476 121.561607,111.124359 
z"/>
<path fill="#54B941" opacity="1.000000" stroke="none" 
	d="
M129.606567,111.097870 
	C129.875824,111.429970 129.682327,111.657867 129.215485,111.924744 
	C128.174133,111.894264 127.337822,111.766800 126.276527,111.414162 
	C127.105064,111.143219 128.158585,111.097450 129.606567,111.097870 
z"/>
<path fill="#62C04D" opacity="1.000000" stroke="none" 
	d="
M131.742615,110.182251 
	C132.002213,110.198532 132.003922,110.594421 132.008484,110.792130 
	C131.814713,110.987709 131.616379,110.985565 131.120346,110.958885 
	C131.042770,110.678223 131.262894,110.422089 131.742615,110.182251 
z"/>
<path fill="#F9F9F8" opacity="1.000000" stroke="none" 
	d="
M147.991486,188.712860 
	C147.286346,192.244507 144.685379,190.627853 142.511337,191.081879 
	C130.346863,191.058197 118.560890,190.646118 106.815720,191.162262 
	C100.915268,191.421555 94.841339,192.011353 89.078766,194.604523 
	C86.829971,196.415558 84.888107,196.758865 83.796371,193.471863 
	C93.054779,179.627213 103.558792,167.253937 112.201454,153.549026 
	C112.803947,152.593643 113.811844,151.893921 114.896301,150.822754 
	C118.662277,150.461075 119.638153,153.607346 121.425453,155.584442 
	C129.184769,164.167694 136.139877,173.444626 144.241867,182.200790 
	C145.550232,184.494629 147.515533,185.987656 147.991486,188.712860 
z"/>
<path fill="#359227" opacity="1.000000" stroke="none" 
	d="
M182.756058,193.041168 
	C182.300644,194.753891 181.115189,195.547440 179.631012,196.497818 
	C165.896622,196.177933 157.639755,186.956833 148.262177,178.083008 
	C151.010010,181.662720 153.112366,184.669113 155.199036,187.682373 
	C156.105240,188.990967 157.283691,190.438095 155.530579,192.319275 
	C150.269211,191.626495 149.067215,186.686615 145.635437,183.667755 
	C136.158539,172.246262 126.913536,161.097748 117.033333,150.043884 
	C115.802757,144.932816 111.395523,142.523895 108.888809,138.730408 
	C107.655479,136.863953 105.935654,135.248322 104.646500,132.946762 
	C103.968140,130.304291 105.660088,129.684631 107.702393,128.949890 
	C109.213394,128.821777 110.244232,129.065765 111.527145,129.789490 
	C112.603737,130.569656 113.160866,131.389023 114.338531,132.009674 
	C114.840927,132.319229 115.037277,132.452835 115.492813,132.832855 
	C126.453156,142.359924 135.005692,153.589111 144.052261,164.363907 
	C150.570862,172.127792 157.772598,179.179504 165.603195,185.594666 
	C169.526062,188.808441 173.820770,191.203278 179.129013,191.060165 
	C180.544373,191.022003 181.678833,191.680710 182.756058,193.041168 
z"/>
<path fill="#E8E9E8" opacity="1.000000" stroke="none" 
	d="
M83.723839,193.196365 
	C84.453102,195.736618 86.598953,194.784958 88.597504,194.990875 
	C92.959450,195.160934 96.874352,194.865402 100.789490,194.077194 
	C102.539909,193.724808 104.806892,193.938354 105.416634,195.951782 
	C105.969650,197.777863 103.715797,198.179565 102.574699,198.861557 
	C97.345879,201.986649 92.003403,204.921570 86.343300,207.956696 
	C85.934113,205.718155 88.019829,205.299393 89.260323,204.116058 
	C90.363831,203.063385 92.155869,202.266068 91.527054,200.202332 
	C90.856583,198.001862 89.067627,197.978134 87.193321,197.974380 
	C85.595520,197.971191 83.926331,198.350983 82.143723,197.131256 
	C81.784798,195.387772 82.856827,194.481552 83.723839,193.196365 
z"/>
<path fill="#32671C" opacity="1.000000" stroke="none" 
	d="
M116.649780,149.806732 
	C118.252975,149.955719 119.344597,150.689560 120.217758,151.725449 
	C128.809006,161.917908 137.387375,172.121216 146.030823,182.664734 
	C145.617126,183.386230 145.077469,183.544708 144.074585,183.307953 
	C134.392090,172.375488 125.108299,161.618423 115.492950,150.715790 
	C115.581627,150.341660 116.001869,150.113098 116.649780,149.806732 
z"/>
<path fill="#DADDDA" opacity="1.000000" stroke="none" 
	d="
M37.848999,200.762192 
	C37.886017,201.848312 38.080238,202.883942 37.651100,203.426880 
	C34.327782,207.631363 37.201336,209.137085 40.789654,210.758438 
	C37.747738,212.522186 34.811874,211.412689 32.851086,209.029495 
	C30.625923,206.325012 32.405025,203.854248 34.640179,201.844315 
	C35.536247,201.038528 36.036961,200.043640 35.953487,198.437378 
	C36.545273,198.874588 37.131359,199.679031 37.848999,200.762192 
z"/>
<path fill="#3CA02D" opacity="1.000000" stroke="none" 
	d="
M96.261963,125.064308 
	C96.001816,123.870186 95.993324,122.829918 95.979950,121.399658 
	C100.447350,121.650375 104.644768,122.909576 107.947624,126.652130 
	C105.218491,128.281616 102.329590,127.498642 99.115295,127.267197 
	C98.007011,126.475441 97.260315,125.846809 96.261963,125.064308 
z"/>
<path fill="#3D9B2F" opacity="1.000000" stroke="none" 
	d="
M98.900635,127.385880 
	C101.560020,126.270950 104.363739,125.326157 107.614456,126.952805 
	C108.002747,126.998474 108.500305,126.999962 108.749084,127.000443 
	C109.576958,127.684341 109.731384,128.454514 109.234177,129.651215 
	C107.297874,129.897079 105.831055,130.289047 104.740143,132.285278 
	C104.515923,132.640106 104.292236,132.501633 104.238083,132.381760 
	C103.943436,131.904602 103.649452,131.598740 103.013130,131.204834 
	C101.498779,129.932724 100.273170,128.800201 98.900635,127.385880 
z"/>
<path fill="#8E9D87" opacity="1.000000" stroke="none" 
	d="
M74.981010,127.003120 
	C75.413086,127.027199 75.866821,127.055511 76.654953,127.037163 
	C76.903152,127.643707 76.764992,128.346481 76.003944,128.419144 
	C75.770821,128.441391 75.476715,127.824974 75.099716,127.233482 
	C74.988892,126.965935 75.002663,127.007355 74.981010,127.003120 
z"/>
<path fill="#8E9D87" opacity="1.000000" stroke="none" 
	d="
M77.001862,127.003616 
	C77.242966,126.803619 77.468262,126.579247 77.728630,126.408302 
	C77.793671,126.365601 77.971725,126.495041 78.097839,126.545364 
	C77.869843,126.672623 77.641846,126.799881 77.201607,126.958824 
	C76.989365,126.990501 76.999008,126.999008 77.001862,127.003616 
z"/>
<path fill="#359227" opacity="1.000000" stroke="none" 
	d="
M102.890137,131.346405 
	C103.091309,131.279587 103.458221,131.493927 104.004539,131.985077 
	C103.807922,132.050446 103.431900,131.839005 102.890137,131.346405 
z"/>
<path fill="#3D9B2F" opacity="1.000000" stroke="none" 
	d="
M183.136780,193.277863 
	C180.646744,192.099426 178.179199,192.141510 175.687805,191.925659 
	C170.292511,191.458252 166.181488,188.082153 162.390259,184.729843 
	C153.858047,177.185455 145.954224,168.980331 138.736298,160.144196 
	C131.433823,151.204544 124.396515,142.024231 115.428322,134.602203 
	C115.209602,134.421188 115.189644,133.999969 115.039856,133.345703 
	C115.399689,132.650894 115.861031,132.505432 116.695168,132.780579 
	C117.446877,132.997849 117.890190,132.998764 118.665985,133.000137 
	C120.015900,134.074066 121.066826,135.102371 122.754036,135.802917 
	C123.504784,136.563797 124.009270,137.126984 124.756271,137.845398 
	C126.500824,139.529221 128.013611,141.047089 129.770233,142.775787 
	C129.999390,143.001221 130.000229,143.499573 130.000732,143.748749 
	C137.725464,151.681229 143.831573,160.783829 151.751541,168.757019 
	C152.534210,171.621124 156.618790,171.388397 156.733368,174.779541 
	C163.905045,183.571777 171.856934,190.359924 183.900665,190.948120 
	C183.903412,191.908203 183.642105,192.542053 183.136780,193.277863 
z"/>
<path fill="#3CA02D" opacity="1.000000" stroke="none" 
	d="
M151.963959,168.653976 
	C147.716507,167.917969 146.045715,164.047760 143.561874,161.059326 
	C139.042450,155.621765 134.565445,150.148926 130.035980,144.344376 
	C134.498871,144.854858 135.775528,149.175140 138.377136,151.997269 
	C143.165115,157.191086 148.039444,162.350601 151.963959,168.653976 
z"/>
<path fill="#3CA02D" opacity="1.000000" stroke="none" 
	d="
M116.963577,132.647614 
	C116.558899,132.997986 116.114227,132.999023 115.336151,133.000336 
	C114.835419,132.999695 114.668091,132.998779 114.249771,132.995987 
	C113.473312,132.455887 112.938210,131.927368 112.200264,131.202881 
	C111.214775,130.683456 110.426193,130.365982 109.318237,130.020599 
	C108.998840,129.244781 108.998817,128.496887 108.998329,127.374954 
	C111.942795,128.313339 115.169487,129.204193 116.963577,132.647614 
z"/>
<path fill="#3CA02D" opacity="1.000000" stroke="none" 
	d="
M129.964569,142.657227 
	C127.421402,142.631927 126.017250,140.920898 125.034134,138.344406 
	C127.579346,138.366898 128.982224,140.079742 129.964569,142.657227 
z"/>
<path fill="#3CA02D" opacity="1.000000" stroke="none" 
	d="
M122.856194,135.704315 
	C121.224464,136.041855 119.582817,135.853256 119.039726,133.356491 
	C120.759537,132.996002 121.764061,134.158417 122.856194,135.704315 
z"/>
<path fill="#368D29" opacity="1.000000" stroke="none" 
	d="
M154.876251,192.381866 
	C156.738266,189.397400 154.028915,188.109406 152.994003,186.740067 
	C150.330734,183.216202 148.393997,179.191757 145.408524,175.666245 
	C156.335556,182.936569 164.598587,194.437378 179.079590,196.252319 
	C175.338852,199.868774 170.601639,199.320038 165.546661,199.241058 
	C161.061691,197.981140 156.510056,197.642426 154.876251,192.381866 
z"/>
<path fill="#3E692E" opacity="1.000000" stroke="none" 
	d="
M154.679260,191.866730 
	C157.103333,195.830063 161.020370,196.996597 164.885345,198.853027 
	C156.510925,200.983734 152.929749,194.504089 148.305725,189.133484 
	C146.609497,187.301682 145.243164,185.544235 143.776352,183.459686 
	C144.211914,183.100433 144.747925,183.068314 145.688110,183.022095 
	C149.671280,185.133728 150.908676,189.488480 154.679260,191.866730 
z"/>
<path fill="#3D9B2F" opacity="1.000000" stroke="none" 
	d="
M112.045273,131.320328 
	C112.906288,131.077637 113.693298,131.317703 113.956169,132.675262 
	C113.093224,132.921417 112.307281,132.679901 112.045273,131.320328 
z"/>
</svg>